<svg width="80" height="80" viewBox="0 0 80 80" fill="none" xmlns="http://www.w3.org/2000/svg">
<path d="M39.9999 23.9764C31.1327 23.9764 23.9764 31.1327 23.9764 39.9999C23.9764 48.8671 31.1327 56.0233 39.9999 56.0233C48.8671 56.0233 56.0233 48.8671 56.0233 39.9999C56.0233 31.1327 48.8671 23.9764 39.9999 23.9764ZM39.9999 50.4139C34.2655 50.4139 29.5858 45.7343 29.5858 39.9999C29.5858 34.2655 34.2655 29.5858 39.9999 29.5858C45.7343 29.5858 50.4139 34.2655 50.4139 39.9999C50.4139 45.7343 45.7343 50.4139 39.9999 50.4139ZM56.6796 19.5858C54.6093 19.5858 52.9374 21.2577 52.9374 23.328C52.9374 25.3983 54.6093 27.0702 56.6796 27.0702C58.7499 27.0702 60.4218 25.4061 60.4218 23.328C60.4224 22.8364 60.326 22.3495 60.1382 21.8952C59.9503 21.4409 59.6747 21.0281 59.3271 20.6805C58.9795 20.3329 58.5667 20.0573 58.1124 19.8694C57.6581 19.6816 57.1712 19.5852 56.6796 19.5858ZM71.2343 39.9999C71.2343 35.6874 71.2733 31.4139 71.0311 27.1093C70.7889 22.1093 69.6483 17.6718 65.9921 14.0155C62.328 10.3514 57.8983 9.21863 52.8983 8.97644C48.5858 8.73426 44.3124 8.77332 40.0077 8.77332C35.6952 8.77332 31.4218 8.73426 27.1171 8.97644C22.1171 9.21863 17.6796 10.3593 14.0233 14.0155C10.3593 17.6796 9.22644 22.1093 8.98426 27.1093C8.74207 31.4218 8.78113 35.6952 8.78113 39.9999C8.78113 44.3046 8.74207 48.5858 8.98426 52.8905C9.22644 57.8905 10.3671 62.328 14.0233 65.9843C17.6874 69.6483 22.1171 70.7811 27.1171 71.0233C31.4296 71.2655 35.703 71.2265 40.0077 71.2265C44.3202 71.2265 48.5936 71.2655 52.8983 71.0233C57.8983 70.7811 62.3358 69.6405 65.9921 65.9843C69.6561 62.3202 70.7889 57.8905 71.0311 52.8905C71.2811 48.5858 71.2343 44.3124 71.2343 39.9999ZM64.3593 58.4218C63.7889 59.8436 63.1014 60.9061 61.9999 61.9999C60.8983 63.1014 59.8436 63.7889 58.4218 64.3593C54.3124 65.9921 44.5546 65.6249 39.9999 65.6249C35.4452 65.6249 25.6796 65.9921 21.5702 64.3671C20.1483 63.7968 19.0858 63.1093 17.9921 62.0077C16.8905 60.9061 16.203 59.8515 15.6327 58.4296C14.0077 54.3124 14.3749 44.5546 14.3749 39.9999C14.3749 35.4452 14.0077 25.6796 15.6327 21.5702C16.203 20.1483 16.8905 19.0858 17.9921 17.9921C19.0936 16.8983 20.1483 16.203 21.5702 15.6327C25.6796 14.0077 35.4452 14.3749 39.9999 14.3749C44.5546 14.3749 54.3202 14.0077 58.4296 15.6327C59.8514 16.203 60.9139 16.8905 62.0077 17.9921C63.1093 19.0936 63.7968 20.1483 64.3671 21.5702C65.9921 25.6796 65.6249 35.4452 65.6249 39.9999C65.6249 44.5546 65.9921 54.3124 64.3593 58.4218Z" fill="#FF0000"/>
</svg>
